<mxfile host="app.diagrams.net" modified="2023-10-04T21:23:41.133Z" agent="Mozilla/5.0 (Windows NT 10.0; Win64; x64) AppleWebKit/537.36 (KHTML, like Gecko) Chrome/117.0.0.0 Safari/537.36" etag="btFyWJZDw-IbzjwI6Cc9" version="22.0.2" type="device">
  <diagram name="Page-1" id="AZl5n2Z-xv-6YmWAkerQ">
    <mxGraphModel dx="1050" dy="542" grid="1" gridSize="10" guides="1" tooltips="1" connect="1" arrows="1" fold="1" page="1" pageScale="1" pageWidth="827" pageHeight="1169" math="0" shadow="0">
      <root>
        <mxCell id="0" />
        <mxCell id="1" parent="0" />
        <mxCell id="QTVVxxZJfvImXtELBVtT-2" value="" style="rounded=1;whiteSpace=wrap;html=1;arcSize=8;fillColor=none;strokeWidth=2;" parent="1" vertex="1">
          <mxGeometry x="140" y="160" width="490" height="420" as="geometry" />
        </mxCell>
        <mxCell id="9Rn9oVYCQtDBo2JNrY6k-44" value="" style="rounded=1;whiteSpace=wrap;html=1;arcSize=8;fillColor=none;strokeWidth=2;" parent="1" vertex="1">
          <mxGeometry x="290" y="220" width="320" height="340" as="geometry" />
        </mxCell>
        <mxCell id="sC3Ns5Q0KhSRSVjvUjOD-1" value="" style="rounded=1;whiteSpace=wrap;html=1;arcSize=8;fillColor=none;strokeWidth=2;" vertex="1" parent="1">
          <mxGeometry x="470" y="260" width="120" height="190" as="geometry" />
        </mxCell>
        <mxCell id="sC3Ns5Q0KhSRSVjvUjOD-9" style="edgeStyle=orthogonalEdgeStyle;rounded=0;orthogonalLoop=1;jettySize=auto;html=1;entryX=0;entryY=0.75;entryDx=0;entryDy=0;endArrow=classicThin;endFill=1;startArrow=classicThin;startFill=1;strokeWidth=2;fillColor=#fad9d5;strokeColor=#ff0000;" edge="1" parent="1" target="sC3Ns5Q0KhSRSVjvUjOD-8">
          <mxGeometry relative="1" as="geometry">
            <mxPoint x="580" y="420" as="sourcePoint" />
          </mxGeometry>
        </mxCell>
        <mxCell id="sC3Ns5Q0KhSRSVjvUjOD-14" style="edgeStyle=orthogonalEdgeStyle;rounded=0;orthogonalLoop=1;jettySize=auto;html=1;exitX=0.25;exitY=1;exitDx=0;exitDy=0;entryX=0.25;entryY=0;entryDx=0;entryDy=0;startArrow=classicThin;startFill=1;endArrow=openThin;endFill=0;fillColor=#b1ddf0;strokeColor=#10739e;strokeWidth=2;" edge="1" parent="1" source="9Rn9oVYCQtDBo2JNrY6k-2" target="sC3Ns5Q0KhSRSVjvUjOD-12">
          <mxGeometry relative="1" as="geometry" />
        </mxCell>
        <mxCell id="sC3Ns5Q0KhSRSVjvUjOD-15" style="edgeStyle=orthogonalEdgeStyle;rounded=0;orthogonalLoop=1;jettySize=auto;html=1;exitX=0.75;exitY=1;exitDx=0;exitDy=0;entryX=0.75;entryY=0;entryDx=0;entryDy=0;startArrow=classicThin;startFill=1;endArrow=classicThin;endFill=1;strokeWidth=2;strokeColor=#ff0000;" edge="1" parent="1" source="9Rn9oVYCQtDBo2JNrY6k-2" target="sC3Ns5Q0KhSRSVjvUjOD-12">
          <mxGeometry relative="1" as="geometry" />
        </mxCell>
        <mxCell id="9Rn9oVYCQtDBo2JNrY6k-2" value="&lt;b&gt;Puerto&lt;br&gt;USB&lt;br&gt;&lt;/b&gt;" style="rounded=1;whiteSpace=wrap;html=1;fillColor=none;strokeWidth=2;" parent="1" vertex="1">
          <mxGeometry x="480" y="375" width="100" height="61" as="geometry" />
        </mxCell>
        <mxCell id="9Rn9oVYCQtDBo2JNrY6k-4" value="&lt;b&gt;Interfaz&lt;br&gt;UART&lt;br&gt;ESP32 - Logger&lt;br&gt;&lt;/b&gt;" style="rounded=1;whiteSpace=wrap;html=1;fillColor=none;strokeWidth=2;" parent="1" vertex="1">
          <mxGeometry x="320" y="390" width="110" height="60" as="geometry" />
        </mxCell>
        <mxCell id="9Rn9oVYCQtDBo2JNrY6k-6" value="&lt;b&gt;Firmware&lt;/b&gt;" style="rounded=1;whiteSpace=wrap;html=1;fillColor=none;strokeWidth=2;" parent="1" vertex="1">
          <mxGeometry x="320" y="496" width="110" height="40" as="geometry" />
        </mxCell>
        <mxCell id="9Rn9oVYCQtDBo2JNrY6k-7" value="&lt;b&gt;Alimentaci칩n&lt;br&gt;5V&lt;br&gt;&lt;/b&gt;" style="rounded=1;whiteSpace=wrap;html=1;fillColor=none;strokeWidth=2;" parent="1" vertex="1">
          <mxGeometry x="480" y="300" width="100" height="60" as="geometry" />
        </mxCell>
        <mxCell id="9Rn9oVYCQtDBo2JNrY6k-8" value="ESP32" style="text;html=1;strokeColor=none;fillColor=none;align=center;verticalAlign=middle;whiteSpace=wrap;rounded=0;fontStyle=1;fontSize=13;" parent="1" vertex="1">
          <mxGeometry x="414" y="230" width="60" height="30" as="geometry" />
        </mxCell>
        <mxCell id="9Rn9oVYCQtDBo2JNrY6k-9" value="Alimentaci칩n externa" style="rounded=1;whiteSpace=wrap;html=1;fontStyle=1;fillColor=none;strokeWidth=2;" parent="1" vertex="1">
          <mxGeometry x="670" y="300" width="110" height="60" as="geometry" />
        </mxCell>
        <mxCell id="gq82XVnaDERFkmPNpvWh-17" value="" style="endArrow=classicThin;startArrow=classicThin;html=1;rounded=0;fillColor=#e51400;strokeColor=#ff0000;exitX=0;exitY=0.5;exitDx=0;exitDy=0;strokeWidth=2;startFill=1;endFill=1;entryX=1;entryY=0.5;entryDx=0;entryDy=0;" parent="1" source="9Rn9oVYCQtDBo2JNrY6k-9" edge="1" target="9Rn9oVYCQtDBo2JNrY6k-7">
          <mxGeometry width="50" height="50" relative="1" as="geometry">
            <mxPoint x="580" y="299.65999999999997" as="sourcePoint" />
            <mxPoint x="580" y="300" as="targetPoint" />
            <Array as="points" />
          </mxGeometry>
        </mxCell>
        <mxCell id="sC3Ns5Q0KhSRSVjvUjOD-10" style="edgeStyle=orthogonalEdgeStyle;rounded=0;orthogonalLoop=1;jettySize=auto;html=1;exitX=0.75;exitY=1;exitDx=0;exitDy=0;entryX=0.5;entryY=0;entryDx=0;entryDy=0;startArrow=classicThin;startFill=1;endArrow=classicThin;endFill=1;strokeWidth=2;strokeColor=#FF0000;" edge="1" parent="1" source="gq82XVnaDERFkmPNpvWh-21" target="9Rn9oVYCQtDBo2JNrY6k-6">
          <mxGeometry relative="1" as="geometry">
            <Array as="points">
              <mxPoint x="403" y="370" />
              <mxPoint x="450" y="370" />
              <mxPoint x="450" y="470" />
              <mxPoint x="375" y="470" />
            </Array>
          </mxGeometry>
        </mxCell>
        <mxCell id="gq82XVnaDERFkmPNpvWh-21" value="&lt;b&gt;Pines de conexionado de base&lt;br&gt;&lt;/b&gt;" style="rounded=1;whiteSpace=wrap;html=1;fillColor=none;strokeWidth=2;" parent="1" vertex="1">
          <mxGeometry x="320" y="290" width="110" height="60" as="geometry" />
        </mxCell>
        <mxCell id="QTVVxxZJfvImXtELBVtT-3" value="&lt;font style=&quot;font-size: 14px;&quot;&gt;Penguin Base&lt;/font&gt;" style="text;html=1;strokeColor=none;fillColor=none;align=center;verticalAlign=middle;whiteSpace=wrap;rounded=0;fontStyle=1;fontSize=13;" parent="1" vertex="1">
          <mxGeometry x="330" y="170" width="110" height="30" as="geometry" />
        </mxCell>
        <mxCell id="QTVVxxZJfvImXtELBVtT-5" value="&lt;b&gt;Circuito de generaci칩n de flanco y LEDs&lt;br&gt;&lt;/b&gt;" style="rounded=1;whiteSpace=wrap;html=1;fillColor=none;strokeWidth=2;" parent="1" vertex="1">
          <mxGeometry x="160" y="290" width="100" height="60" as="geometry" />
        </mxCell>
        <mxCell id="QTVVxxZJfvImXtELBVtT-6" value="&lt;b&gt;Carcasa mec치nica&lt;br&gt;&lt;/b&gt;" style="rounded=1;whiteSpace=wrap;html=1;fillColor=none;strokeWidth=2;" parent="1" vertex="1">
          <mxGeometry x="160" y="185" width="100" height="60" as="geometry" />
        </mxCell>
        <mxCell id="QTVVxxZJfvImXtELBVtT-11" value="" style="endArrow=classicThin;startArrow=classicThin;html=1;rounded=0;fillColor=#e3c800;strokeColor=#d6b655;entryX=1;entryY=0.25;entryDx=0;entryDy=0;strokeWidth=2;exitX=0;exitY=0.25;exitDx=0;exitDy=0;edgeStyle=orthogonalEdgeStyle;startFill=1;endFill=1;" parent="1" source="gq82XVnaDERFkmPNpvWh-21" target="QTVVxxZJfvImXtELBVtT-5" edge="1">
          <mxGeometry width="50" height="50" relative="1" as="geometry">
            <mxPoint x="310" y="305" as="sourcePoint" />
            <mxPoint x="329" y="420" as="targetPoint" />
          </mxGeometry>
        </mxCell>
        <mxCell id="QTVVxxZJfvImXtELBVtT-20" value="" style="endArrow=classicThin;startArrow=classicThin;html=1;rounded=0;fillColor=#e51400;strokeColor=#ff0000;strokeWidth=2;entryX=0.75;entryY=1;entryDx=0;entryDy=0;exitX=0.75;exitY=0;exitDx=0;exitDy=0;startFill=1;endFill=1;" parent="1" source="QTVVxxZJfvImXtELBVtT-5" target="QTVVxxZJfvImXtELBVtT-6" edge="1">
          <mxGeometry width="50" height="50" relative="1" as="geometry">
            <mxPoint x="650" y="225" as="sourcePoint" />
            <mxPoint x="570" y="225" as="targetPoint" />
            <Array as="points" />
          </mxGeometry>
        </mxCell>
        <mxCell id="QTVVxxZJfvImXtELBVtT-21" value="" style="endArrow=classicThin;startArrow=classicThin;html=1;rounded=0;fillColor=#e3c800;strokeColor=#d6b655;entryX=0.25;entryY=0;entryDx=0;entryDy=0;strokeWidth=2;exitX=0.25;exitY=1;exitDx=0;exitDy=0;startFill=1;endFill=1;" parent="1" source="QTVVxxZJfvImXtELBVtT-6" target="QTVVxxZJfvImXtELBVtT-5" edge="1">
          <mxGeometry width="50" height="50" relative="1" as="geometry">
            <mxPoint x="320" y="355" as="sourcePoint" />
            <mxPoint x="270" y="355" as="targetPoint" />
            <Array as="points" />
          </mxGeometry>
        </mxCell>
        <mxCell id="QTVVxxZJfvImXtELBVtT-23" value="" style="endArrow=classicThin;startArrow=classicThin;html=1;rounded=0;entryX=0.25;entryY=0;entryDx=0;entryDy=0;exitX=0.25;exitY=1;exitDx=0;exitDy=0;fillColor=#dae8fc;strokeColor=#006eaf;strokeWidth=2;edgeStyle=orthogonalEdgeStyle;endFill=1;startFill=1;" parent="1" source="gq82XVnaDERFkmPNpvWh-21" target="9Rn9oVYCQtDBo2JNrY6k-4" edge="1">
          <mxGeometry width="50" height="50" relative="1" as="geometry">
            <mxPoint x="500" y="375" as="sourcePoint" />
            <mxPoint x="399" y="340" as="targetPoint" />
          </mxGeometry>
        </mxCell>
        <mxCell id="QTVVxxZJfvImXtELBVtT-24" value="" style="endArrow=classicThin;startArrow=classicThin;html=1;rounded=0;fillColor=#e51400;strokeColor=#ff0000;strokeWidth=2;entryX=0;entryY=0.75;entryDx=0;entryDy=0;exitX=1;exitY=0.75;exitDx=0;exitDy=0;startFill=1;endFill=1;" parent="1" source="QTVVxxZJfvImXtELBVtT-5" target="gq82XVnaDERFkmPNpvWh-21" edge="1">
          <mxGeometry width="50" height="50" relative="1" as="geometry">
            <mxPoint x="220" y="300" as="sourcePoint" />
            <mxPoint x="310" y="335" as="targetPoint" />
            <Array as="points" />
          </mxGeometry>
        </mxCell>
        <mxCell id="sC3Ns5Q0KhSRSVjvUjOD-3" value="&lt;b&gt;Conector USB C&lt;/b&gt;" style="text;html=1;strokeColor=none;fillColor=none;align=center;verticalAlign=middle;whiteSpace=wrap;rounded=0;" vertex="1" parent="1">
          <mxGeometry x="500" y="264" width="60" height="30" as="geometry" />
        </mxCell>
        <mxCell id="sC3Ns5Q0KhSRSVjvUjOD-6" value="" style="endArrow=classicThin;startArrow=classicThin;html=1;rounded=0;entryX=0.25;entryY=0;entryDx=0;entryDy=0;exitX=0.25;exitY=1;exitDx=0;exitDy=0;fillColor=#dae8fc;strokeColor=#006eaf;strokeWidth=2;edgeStyle=orthogonalEdgeStyle;startFill=1;endFill=1;" edge="1" parent="1" source="9Rn9oVYCQtDBo2JNrY6k-4" target="9Rn9oVYCQtDBo2JNrY6k-6">
          <mxGeometry width="50" height="50" relative="1" as="geometry">
            <mxPoint x="358" y="360" as="sourcePoint" />
            <mxPoint x="358" y="400" as="targetPoint" />
          </mxGeometry>
        </mxCell>
        <mxCell id="sC3Ns5Q0KhSRSVjvUjOD-11" style="edgeStyle=orthogonalEdgeStyle;rounded=0;orthogonalLoop=1;jettySize=auto;html=1;exitX=0;exitY=0.25;exitDx=0;exitDy=0;entryX=1;entryY=0.25;entryDx=0;entryDy=0;startArrow=classicThin;startFill=1;endArrow=classicThin;endFill=1;strokeWidth=2;strokeColor=#10739e;fillColor=#b1ddf0;" edge="1" parent="1" source="sC3Ns5Q0KhSRSVjvUjOD-8" target="9Rn9oVYCQtDBo2JNrY6k-2">
          <mxGeometry relative="1" as="geometry" />
        </mxCell>
        <mxCell id="sC3Ns5Q0KhSRSVjvUjOD-8" value="Comandos de control (PC)" style="rounded=1;whiteSpace=wrap;html=1;fontStyle=1;fillColor=none;strokeWidth=2;" vertex="1" parent="1">
          <mxGeometry x="670" y="375" width="110" height="60" as="geometry" />
        </mxCell>
        <mxCell id="sC3Ns5Q0KhSRSVjvUjOD-13" style="edgeStyle=orthogonalEdgeStyle;rounded=0;orthogonalLoop=1;jettySize=auto;html=1;exitX=0;exitY=0.75;exitDx=0;exitDy=0;entryX=1;entryY=0.75;entryDx=0;entryDy=0;endArrow=classicThin;endFill=1;startArrow=classicThin;startFill=1;strokeWidth=2;fillColor=#b1ddf0;strokeColor=#10739e;" edge="1" parent="1" source="sC3Ns5Q0KhSRSVjvUjOD-12" target="9Rn9oVYCQtDBo2JNrY6k-6">
          <mxGeometry relative="1" as="geometry" />
        </mxCell>
        <mxCell id="sC3Ns5Q0KhSRSVjvUjOD-12" value="&lt;b&gt;Conversor&lt;br&gt;UART&amp;nbsp;- USB&lt;br&gt;&lt;/b&gt;" style="rounded=1;whiteSpace=wrap;html=1;fillColor=none;strokeWidth=2;" vertex="1" parent="1">
          <mxGeometry x="480" y="480" width="100" height="61" as="geometry" />
        </mxCell>
      </root>
    </mxGraphModel>
  </diagram>
</mxfile>
